<svg xmlns="http://www.w3.org/2000/svg" version="1.1" viewBox="-5.0 -10.0 110.0 135.0">
 <g>
  <path d="m27.227 34.426c-0.5 0-0.92578 0.41016-0.92578 0.92578 0 0.5 0.41016 0.92578 0.92578 0.92578 0.5 0 0.92578-0.41016 0.92578-0.92578 0-0.51953-0.41016-0.92578-0.92578-0.92578z"/>
  <path d="m52.348 35.348c0 1.2344-1.8477 1.2344-1.8477 0 0-1.2305 1.8477-1.2305 1.8477 0"/>
  <path d="m40.242 39.695c0 1.2344-1.8477 1.2344-1.8477 0 0-1.2305 1.8477-1.2305 1.8477 0"/>
  <path d="m40.242 49.395c0 1.2305-1.8477 1.2305-1.8477 0 0-1.2344 1.8477-1.2344 1.8477 0"/>
  <path d="m40.242 59.09c0 1.2344-1.8477 1.2344-1.8477 0 0-1.2305 1.8477-1.2305 1.8477 0"/>
  <path d="m40.242 68.789c0 1.2305-1.8477 1.2305-1.8477 0 0-1.2344 1.8477-1.2344 1.8477 0"/>
  <path d="m40.242 78.484c0 1.2344-1.8477 1.2344-1.8477 0 0-1.2305 1.8477-1.2305 1.8477 0"/>
  <path d="m21.195 80.242c1.332 0 2.4258-1.0898 2.4258-2.4375 0-1.332-1.0898-2.4258-2.4258-2.4258-1.3477 0-2.4375 1.0898-2.4375 2.4258 0 1.3477 1.0898 2.4375 2.4375 2.4375zm0-3.3945c0.53125 0 0.96875 0.42578 0.96875 0.96875 0 0.53125-0.42578 0.96875-0.96875 0.96875-0.53125 0-0.96875-0.4375-0.96875-0.96875 0-0.52734 0.42578-0.96875 0.96875-0.96875z"/>
  <path d="m40.242 88.363c0 1.2344-1.8477 1.2344-1.8477 0 0-1.2305 1.8477-1.2305 1.8477 0"/>
  <path d="m94.062 50.562h-10.363l-0.003907-2.6836v-7.5469c0-0.41016-0.33203-0.72656-0.72656-0.72656h-7.5312c-0.13672-0.18359-0.33203-0.30469-0.57422-0.30469h-1.6055v-14.5c0-1.3047-0.46875-2.5625-1.332-3.5156-2.7734-3.1055-6.9844-5.168-12.516-6.1523-0.96875-2.2578-2.4375-4.1211-4.3945-5.5156-0.015625 0-0.015625-0.015626-0.03125-0.015626l-0.015625-0.015624c-10.363-6.2422-20.879-6.2422-31.242 0l-0.015624 0.015624c-0.015626 0-0.015626 0.015626-0.03125 0.015626-1.9531 1.4102-3.4258 3.2578-4.3945 5.5156-5.5312 0.98438-9.7422 3.0469-12.516 6.1523-0.86328 0.95312-1.332 2.2109-1.332 3.5312v29.578c-0.57422 0.074219-1.1367 0.28906-1.6367 0.65234-0.95312 0.68359-1.5 1.7422-1.5 2.9102v21.453c0 1.8164 1.3789 3.3164 3.1367 3.5469v6.8164c0 2.9258 2.3789 5.3047 5.3047 5.3047h25.832 0.015625 5.5469 0.015625 14.742c0.18359 0.03125 0.37891 0.046875 0.57422 0.046875h39.562c0.41016 0 0.72656-0.33203 0.72656-0.72656v-40.172c-0.03125-2.0156-1.6836-3.6641-3.6953-3.6641zm-18.488-9.4883h6.6367v6.0742h-6.6367zm6.6367 7.5469v18.758c-2.2266-0.34766-3.9531-2.2891-3.9531-4.6211v-14.137zm-10.242-7.8633h2.1367v6.3789h-2.1367zm-11.984-24.016c4.7734 0.96875 8.4258 2.8164 10.832 5.5156 0.62109 0.69531 0.96875 1.6055 0.96875 2.5469v14.5h-0.53125c-0.24219 0-0.4375 0.12109-0.57422 0.30469h-5.9258c-0.13672-0.18359-0.33203-0.30469-0.57422-0.30469h-3.6055c-0.24219 0-0.4375 0.12109-0.57422 0.30469h-4.9844l5.5469-20.152c0.03125-0.10547 0.03125-0.21094 0.015625-0.31641-0.16797-0.85156-0.36719-1.6406-0.59375-2.3984zm10.516 24.332v6.0742h-5.6055v-6.0742zm-6.3477 7.5469h0.5625l-2.1211 7.0625c-1.0898 3.6367-4.3633 6.2422-8.1055 6.5469v-13.621h6.0625l3.6016-0.003906zm-2.8633-1.4688v-6.3945h2.1367v6.3789h-2.1367zm-7.8633-36.758c0.089844 0 0.18359-0.015625 0.28906-0.015625h0.03125c-3.0156 9.4258-7.7422 16.668-14.41 22.137-6.6367-5.4375-11.332-12.637-14.363-21.984 9.4375-5.4844 18.996-5.5312 28.453-0.13672zm-49.684 69.016v-21.457c0-0.69531 0.31641-1.3164 0.87891-1.7266 0.5625-0.41016 1.2578-0.51562 1.9258-0.28906l10.289 3.5c-2.1953 8.0742-2.9258 15.316-2.2266 22.074l-8.7461 0.003906c-1.168 0.015625-2.1211-0.94141-2.1211-2.1055zm14.469-19.484 9.7578 3.3164c1.3633 0.46875 2.1211 1.9102 1.7109 3.2891l-4.2266 14.742c-0.41016 1.4102-1.832 2.2266-3.2578 1.8789l-6.1367-1.5469c-0.71094-6.6367-0.011719-13.742 2.1523-21.68zm17.605 33.68h-25.105c-2.1211 0-3.832-1.7266-3.832-3.832v-6.7578h8.5312c0.046875 0 0.074219-0.015625 0.10547-0.03125l6.332 1.6055c0.34766 0.089844 0.68359 0.12109 1.0312 0.12109 1.8164 0 3.4688-1.1836 4-3.0156l4.2266-14.758c0.62109-2.1367-0.54688-4.3633-2.6523-5.0898l-10.5-3.5742-10.926-3.7109c-0.058594-0.015625-0.10156-0.03125-0.14844-0.046875v-29.711c0-0.95313 0.34766-1.8477 0.96875-2.5469 2.3945-2.6953 6.0469-4.5469 10.832-5.5156-0.22656 0.75781-0.42578 1.5625-0.5625 2.3945-0.015626 0.10547-0.015626 0.21094 0.015624 0.31641l5.9844 21.727c0.0625 0.21094 0.21094 0.39453 0.41016 0.48437 0.089844 0.046876 0.19531 0.0625 0.28906 0.0625 0.12109 0 0.22656-0.03125 0.33203-0.074218l10.668-5.5312zm-10.543-53.695-5.6953-20.711c0.5625-3.3477 1.9258-5.9102 4.1211-7.7734 3.0625 9.2266 7.7422 16.41 14.289 21.91zm16.09 53.695h-4.0742v-58.258l2.0312-1.0625 2.0312 1.0625-0.003906 58.258zm-0.71094-60.273c6.5469-5.4844 11.227-12.684 14.289-21.91 2.1953 1.8789 3.5625 4.4375 4.1211 7.7734l-5.6367 20.469c-0.074219 0.046876-0.15234 0.089844-0.21094 0.15234zm2.1797 60.273v-57.5l10.184 5.2734v49.316c0 1.1055 0.41016 2.1211 1.0898 2.8945h-11.273zm11.652-52.316c0.015625-0.03125 0.046875-0.074218 0.0625-0.10547l0.03125-0.10547h5.2422v6.0742h-5.332zm41.773 52.348h-32.637v-0.046875h-6.6055c-1.4258-0.19531-2.5312-1.4258-2.5312-2.8945v-3.3164c0.62109 0.46875 1.3789 0.75781 2.1953 0.75781h27.715c2.2109 0 4.0898-1.668 4.3477-3.8633l3.2422-26.848c0.046875-0.41016-0.24219-0.77344-0.63672-0.81641-0.41016-0.046875-0.77344 0.24219-0.81641 0.63672l-3.2422 26.844c-0.18359 1.4688-1.4258 2.5625-2.8945 2.5625h-27.699c-1.2109 0-2.1953-0.98438-2.1953-2.1953v-20.762c4.4531-0.30469 8.2266-3.2734 9.5156-7.5898l2.2422-7.4844h10.543v14.137c0 3.1367 2.3633 5.7422 5.4102 6.1055v11.805c0 0.41016 0.33203 0.72656 0.72656 0.72656 0.41016 0 0.72656-0.33203 0.72656-0.72656l0.003907-12.484v-16.152h10.363c1.2109 0 2.1953 0.98438 2.1953 2.1953v39.41z"/>
  <path d="m75.953 17.469c0.18359 0 0.37891-0.074219 0.51562-0.21094l4.168-4.168c0.28906-0.28906 0.28906-0.75781 0-1.0469-0.28906-0.28906-0.75781-0.28906-1.0469 0l-4.168 4.168c-0.28906 0.28906-0.28906 0.75781 0 1.0469 0.16797 0.13672 0.35156 0.21094 0.53125 0.21094z"/>
  <path d="m73.047 14.547c0.41016 0 0.72656-0.33203 0.72656-0.72656v-5.0469c0-0.41016-0.33203-0.72656-0.72656-0.72656-0.41016 0-0.72656 0.33203-0.72656 0.72656v5.0469c-0.015624 0.40625 0.31641 0.72656 0.72656 0.72656z"/>
  <path d="m78.152 19.652c0 0.41016 0.33203 0.72656 0.72656 0.72656h5.0469c0.41016 0 0.72656-0.33203 0.72656-0.72656 0-0.41016-0.33203-0.72656-0.72656-0.72656h-5.0469c-0.41016 0-0.72656 0.33203-0.72656 0.72656z"/>
  <path d="m82.047 11.395c0.18359 0 0.37891-0.074219 0.51562-0.21094l0.77344-0.77344c0.28906-0.28906 0.28906-0.75781 0-1.0469-0.30469-0.27344-0.76172-0.27344-1.0469 0.015625l-0.77344 0.75781c-0.28906 0.28906-0.28906 0.75781 0 1.0469 0.15234 0.13281 0.33203 0.21094 0.53125 0.21094z"/>
 </g>
<text x="0.0" y="117.5" font-size="5.0" font-weight="bold" font-family="Arbeit Regular, Helvetica, Arial-Unicode, Arial, Sans-serif" fill="#000000">Created by Candy Design</text><text x="0.0" y="122.5" font-size="5.0" font-weight="bold" font-family="Arbeit Regular, Helvetica, Arial-Unicode, Arial, Sans-serif" fill="#000000">from Noun Project</text></svg>